<svg xmlns="http://www.w3.org/2000/svg" id="Layer_1" data-name="Layer 1" viewBox="58.25 138.01 325.12 135.4">
  <defs>
    <style>
      .cls-1 {
        fill: #a94425;
      }

      .cls-2 {
        fill: #e8bb20;
      }

      .cls-3 {
        fill: #680e15;
      }
    </style>
  </defs>
  <path class="cls-2" d="M118.14,216.01c10.63-4.14,19.14-5.91,26.1-7.24l-13,56.64h-52.81l16.77-34.41c6.18-5.83,13.88-11.46,22.94-14.99Z"/>
  <path class="cls-1" d="M164.4,170.56h-11.4l-4.63,20.15c-10.65,5.8-25.17,9.19-41.14,15.61l17.43-35.76H58.25l27.27-32.55h69.18c5.51,9.37,11.05,21.86,9.7,32.55Z"/>
  <path class="cls-3" d="M228.59,138.01l-25.91,32.55h-26.05c.11-3.31-.04-6.7-.41-10.12-.65-6.04-3.66-14.53-6.99-22.43h59.36Z"/>
  <g>
    <path class="cls-3" d="M164.03,238.99h-4.33c-1.77,0-3.94,0-7.83,.04v-4.95h29.75v4.95c-3.36-.04-5.79-.04-7.56-.04h-4.6v20.65c0,2.34,0,4.11,.04,5.84h-5.53c.04-1.72,.04-3.45,.04-5.88v-20.6Z"/>
    <path class="cls-3" d="M184.46,245.27c0-2.16,0-3.71-.04-5.53h4.95l.09,4.33c1.41-3.27,3.98-4.86,7.74-4.86,5.35,0,7.07,1.9,7.07,7.87,0,1.15,0,2.52-.04,3.67l-5,.09v-2.56c0-3.27-.8-4.25-4.29-4.25s-5.22,1.33-5.22,8.49v7.25c0,2.34,0,3.8,.05,5.7h-5.35c.04-1.95,.04-3.49,.04-5.84v-14.37Z"/>
    <path class="cls-3" d="M209.31,244.83c0-1.72,0-3.18-.05-5.08h5.31c0,1.72-.05,2.96-.05,5v9.24c0,5.84,1.33,7.21,5.88,7.21s6.28-1.37,6.28-8.49v-7.25c0-2.34,0-3.8-.05-5.7h5.35c-.04,1.95-.04,3.49-.04,5.84v14.37c0,2.12,0,3.67,.04,5.53h-4.95l-.09-4.29c-1.59,3.54-4.55,4.82-8.97,4.82-6.19,0-8.71-2.43-8.71-8.97,0-1.33,.05-4.02,.05-7.43v-4.77Z"/>
    <path class="cls-3" d="M237.65,253.27v-1.33c0-9.81,3.45-12.73,12.07-12.73s11.89,2.92,11.89,12.73v2.25h-18.61c.22,5.7,2.03,7.21,7.03,7.21,5.26,0,6.37-1.42,6.37-4.64l5.22,.18c0,6.5-2.61,9.06-11.63,9.06s-12.34-2.92-12.34-12.73Zm5.35-3.01h13.08c-.18-5.44-1.64-6.81-6.32-6.81s-6.46,1.37-6.76,6.81Z"/>
    <path class="cls-3" d="M277.1,238.99h-4.33c-1.77,0-3.94,0-7.83,.04v-4.95h29.75v4.95c-3.36-.04-5.79-.04-7.56-.04h-4.6v20.65c0,2.34,0,4.11,.04,5.84h-5.53c.04-1.72,.04-3.45,.04-5.88v-20.6Z"/>
    <path class="cls-3" d="M299.96,259.5v-19.63c0-2.34,0-4.11-.04-5.79h9.77l4.86,13.88c1.41,4.11,2.78,8.31,3.85,11.63,1.1-3.32,2.47-7.56,3.89-11.67l4.82-13.84h9.11c-.05,1.68-.05,3.32-.05,5.57v19.76c0,2.48,0,4.29,.05,6.06h-5.53c.04-3.49,.04-8.53,.04-12.07,0-3.05,.09-9.95,.13-14.46h-.75c-1.24,3.54-2.7,7.91-4.16,12.2l-5.04,14.32h-5.39l-5.26-14.28c-1.55-4.33-3.14-8.76-4.33-12.25h-.8c.09,3.98,.13,9.86,.13,14.81,0,3.1,0,8.18,.05,11.72h-5.39c.04-2.08,.04-3.54,.04-5.97Z"/>
    <path class="cls-3" d="M342.37,256.67v-.84l5.35-.13v1.06c0,3.85,1.5,4.6,9.33,4.6,6.81,0,8.09-1.02,8.09-4.11,0-2.92-1.24-4.16-9.68-5.26-10.57-1.33-12.82-3.27-12.82-9.37s3.01-9.15,13.13-9.15c11.23,0,13.7,2.52,13.7,8.89v.8l-5.3,.13v-1.02c0-3.14-1.77-4.16-8.4-4.16-6.19,0-7.6,1.28-7.6,4.02,0,3.01,.97,3.93,9.15,4.95,10.92,1.37,13.26,3.89,13.26,9.73,0,6.76-2.61,9.28-13.44,9.28-11.85,0-14.77-1.81-14.77-9.42Z"/>
  </g>
  <g>
    <path class="cls-3" d="M375.61,267.33h-.37c-.15,0-.33,0-.66,0v-.52h2.65v.52c-.3,0-.52,0-.66,0h-.37v.81c0,.78,0,1.02,0,1.32h-.6c0-.29,0-.54,0-1.32v-.81Zm2.14,.81c0-.7,0-1.03,0-1.32h1.13l.43,1.23c.1,.31,.22,.61,.3,.86h.04c.1-.25,.21-.56,.32-.86l.46-1.23h1.06c0,.29,0,.61,0,1.32s0,1.02,0,1.32h-.59v-1.1c0-.23,0-.68,.01-1.03h-.09c-.27,.71-.65,1.7-.81,2.13h-.76c-.15-.43-.53-1.43-.8-2.13h-.1c0,.3,0,.69,0,1.07,0,.26,0,.76,0,1.06h-.6c0-.29,0-.62,0-1.32Z"/>
    <path class="cls-3" d="M378.1,273.41c-2.91,0-5.27-2.37-5.27-5.27s2.37-5.27,5.27-5.27,5.27,2.37,5.27,5.27-2.37,5.27-5.27,5.27Zm0-9.83c-2.52,0-4.56,2.05-4.56,4.56s2.05,4.56,4.56,4.56,4.56-2.05,4.56-4.56-2.05-4.56-4.56-4.56Z"/>
  </g>
</svg>